<svg width="80" height="36" viewBox="0 0 80 36" fill="none" xmlns="http://www.w3.org/2000/svg">
<path d="M20.9883 35.0804C16.1526 35.0804 10.7039 34.6935 6.95431 31.8233C2.53439 28.4392 0 23.3015 0 17.727C0 13.8033 1.26348 10.0797 3.6535 6.95833C7.04259 2.53717 12.1798 0.00195312 17.7486 0.00195312C21.6727 0.00195312 25.4 1.26626 28.5284 3.65875C33.2767 7.29493 35.0917 14.9307 36.8473 22.3148C37.6624 25.7427 38.5047 29.2865 39.6023 32.2037C39.8531 32.8702 39.7422 33.6198 39.309 34.1849C38.8759 34.75 38.1809 35.052 37.4722 34.9831C36.1497 34.8544 34.6478 34.7917 32.8807 34.7917C30.9683 34.7917 28.9458 34.8651 26.9902 34.9356C25.0073 35.0066 22.9568 35.0804 20.9883 35.0804ZM17.7486 4.12653C13.4734 4.12653 9.52954 6.07311 6.92791 9.46673C5.09436 11.8613 4.12499 14.7174 4.12499 17.7266C4.12499 22.0063 6.07033 25.9506 9.46189 28.5477C12.2496 30.6815 17.0861 30.955 20.9883 30.955C22.8821 30.955 24.8947 30.8824 26.8409 30.8119C28.8332 30.7397 30.8933 30.6654 32.8803 30.6654C33.5337 30.6654 34.1553 30.6737 34.7489 30.6902C34.0307 28.3018 33.4256 25.7555 32.8341 23.2681C31.2455 16.5865 29.603 9.6771 26.0216 6.93399C23.6205 5.09796 20.759 4.12653 17.7486 4.12653Z" fill="#FEC077"/>
<path d="M58.454 35.0785C63.2898 35.0785 68.7385 34.6915 72.4881 31.8214C76.908 28.4372 79.4424 23.2996 79.4424 17.7251C79.4424 13.8014 78.1789 10.0778 75.7889 6.95638C72.3998 2.53522 67.2625 0 61.6938 0C57.7697 0 54.0424 1.26431 50.914 3.6568C46.1657 7.29297 44.3507 14.9287 42.5951 22.3129C41.78 25.7407 40.9377 29.2845 39.84 32.2017C39.5892 32.8683 39.7002 33.6178 40.1333 34.1829C40.5665 34.748 41.2615 35.05 41.9702 34.9811C43.2927 34.8524 44.7946 34.7897 46.5617 34.7897C48.4741 34.7897 50.4965 34.8631 52.4522 34.9337C54.4351 35.0046 56.4856 35.0785 58.454 35.0785ZM61.6938 4.12457C65.9689 4.12457 69.9128 6.07115 72.5145 9.46478C74.348 11.8593 75.3174 14.7155 75.3174 17.7246C75.3174 22.0043 73.3721 25.9486 69.9805 28.5457C67.1928 30.6796 62.3563 30.9531 58.454 30.9531C56.5603 30.9531 54.5477 30.8805 52.6015 30.8099C50.6091 30.7377 48.5491 30.6635 46.5621 30.6635C45.9087 30.6635 45.2871 30.6717 44.6935 30.6882C45.4117 28.2999 46.0168 25.7535 46.6083 23.2662C48.1969 16.5845 49.8394 9.67515 53.4207 6.93204C55.8219 5.09601 58.6834 4.12457 61.6938 4.12457Z" fill="#FEC077"/>
</svg>
